<svg width="20" height="20" viewBox="0 0 20 20" fill="none" xmlns="http://www.w3.org/2000/svg">
<path d="M9.23062 2.69236L8.57677 2.03852C8.38447 1.84621 8.11523 1.84621 7.92293 2.03852L3.846 6.07698L2.19216 4.46159C1.99985 4.26929 1.73062 4.26929 1.53831 4.46159L0.884465 5.11544C0.692157 5.30775 0.692157 5.57698 0.884465 5.76929L3.1537 8.03852C3.346 8.23083 3.57677 8.30775 3.80754 8.30775C4.03831 8.30775 4.26908 8.23083 4.46139 8.03852L9.23062 3.34621C9.38447 3.19236 9.38447 2.88467 9.23062 2.69236Z" fill="#8012DC"/>
<path d="M18.6153 7.07689H10.5768C10.2307 7.07689 9.96143 6.80766 9.96143 6.46151V5.23074C9.96143 4.88459 10.2307 4.61536 10.5768 4.61536H18.6153C18.9614 4.61536 19.2307 4.88459 19.2307 5.23074V6.46151C19.2307 6.80766 18.9614 7.07689 18.6153 7.07689Z" fill="#8012DC"/>
<path d="M18.6153 12.5769H3.76919C3.42304 12.5769 3.15381 12.3077 3.15381 11.9615V10.7307C3.15381 10.3846 3.42304 10.1154 3.76919 10.1154H18.6153C18.9615 10.1154 19.2307 10.3846 19.2307 10.7307V11.9615C19.2307 12.3077 18.9615 12.5769 18.6153 12.5769Z" fill="#8012DC"/>
<path d="M18.6153 18.0769H3.76919C3.42304 18.0769 3.15381 17.8077 3.15381 17.4615V16.2307C3.15381 15.8846 3.42304 15.6154 3.76919 15.6154H18.6153C18.9615 15.6154 19.2307 15.8846 19.2307 16.2307V17.4615C19.2307 17.8077 18.9615 18.0769 18.6153 18.0769Z" fill="#8012DC"/>
</svg>
