<svg width="20" height="20" viewBox="0 0 20 20" fill="none" xmlns="http://www.w3.org/2000/svg">
<g clip-path="url(#clip0_39_668)">
<path d="M14.2916 8.37504C13.6781 8.38714 13.0778 8.19677 12.5833 7.83337C12.4907 7.77181 12.3868 7.72939 12.2775 7.70863C12.1683 7.68786 12.056 7.68917 11.9473 7.71247C11.8386 7.73576 11.7356 7.78058 11.6445 7.84428C11.5533 7.90798 11.4759 7.98928 11.4166 8.08337C11.3509 8.16152 11.3019 8.25226 11.2725 8.35004C11.2431 8.44781 11.234 8.55056 11.2457 8.65198C11.2574 8.75341 11.2897 8.85137 11.3406 8.93988C11.3914 9.02839 11.4599 9.10557 11.5416 9.16671C12.0778 9.54298 12.689 9.79883 13.3333 9.91671V10.8334C13.3333 11.0544 13.4211 11.2663 13.5774 11.4226C13.7337 11.5789 13.9456 11.6667 14.1666 11.6667C14.3877 11.6667 14.5996 11.5789 14.7559 11.4226C14.9122 11.2663 15 11.0544 15 10.8334V9.91671C15.4571 9.8493 15.8882 9.66245 16.25 9.37504C16.5112 9.18329 16.723 8.93213 16.8679 8.64232C17.0128 8.35251 17.0866 8.03237 17.0833 7.70837C17.0833 6.16671 15.6666 5.66671 14.4583 5.41671C13.25 5.16671 13 4.87504 13 4.66671C13 4.45837 13.0833 4.41671 13.2083 4.29171C13.4382 4.16813 13.6977 4.11045 13.9583 4.12504C14.4425 4.12084 14.9183 4.25063 15.3333 4.50004C15.4177 4.56887 15.516 4.61852 15.6215 4.64552C15.7269 4.67253 15.837 4.67625 15.9441 4.65643C16.0511 4.6366 16.1526 4.59371 16.2414 4.53073C16.3302 4.46774 16.4042 4.38618 16.4583 4.29171C16.5297 4.2065 16.5824 4.10721 16.6129 4.0003C16.6434 3.89338 16.651 3.78124 16.6353 3.67118C16.6196 3.56112 16.5809 3.45561 16.5217 3.36151C16.4624 3.26741 16.3841 3.18684 16.2916 3.12504C15.8954 2.88048 15.4576 2.71099 15 2.62504V1.66671C15 1.44569 14.9122 1.23373 14.7559 1.07745C14.5996 0.921171 14.3877 0.833374 14.1666 0.833374C13.9456 0.833374 13.7337 0.921171 13.5774 1.07745C13.4211 1.23373 13.3333 1.44569 13.3333 1.66671V2.58337C12.0833 2.79171 11.25 3.62504 11.25 4.75004C11.25 5.87504 12.625 6.79171 13.9583 7.04171C15.2916 7.29171 15.3333 7.58337 15.3333 7.79171C15.3333 8.00004 14.875 8.37504 14.2916 8.37504Z" fill="#47463C"/>
<path d="M17.5833 13.2084C17.3519 13.0217 17.0844 12.8847 16.7977 12.8058C16.511 12.727 16.2111 12.708 15.9167 12.7501L11.7917 13.5001C11.7938 13.2432 11.7432 12.9885 11.6428 12.752C11.5425 12.5155 11.3946 12.3021 11.2083 12.1251L8.25 9.16675H2.08333C1.86232 9.16675 1.65036 9.25455 1.49408 9.41083C1.3378 9.56711 1.25 9.77907 1.25 10.0001V13.7501C1.25 13.9711 1.3378 14.1831 1.49408 14.3393C1.65036 14.4956 1.86232 14.5834 2.08333 14.5834H3.45833L8.125 18.3751L16.625 16.8334C17.009 16.7584 17.3642 16.5768 17.6498 16.3094C17.9354 16.0419 18.1399 15.6994 18.2399 15.3212C18.3399 14.9429 18.3314 14.5441 18.2152 14.1704C18.0991 13.7968 17.8801 13.4634 17.5833 13.2084ZM16.3333 15.2084L8.54167 16.6251L4.16667 13.0001V10.8334H7.58333L10.0417 13.2917C10.108 13.3581 10.1452 13.448 10.1452 13.5417C10.1452 13.6355 10.108 13.7254 10.0417 13.7917C9.97536 13.8581 9.88544 13.8953 9.79167 13.8953C9.6979 13.8953 9.60797 13.8581 9.54167 13.7917L8.08333 12.3334C7.92286 12.2131 7.72435 12.1546 7.52426 12.1688C7.32417 12.1831 7.13592 12.269 6.99408 12.4108C6.85223 12.5527 6.76632 12.7409 6.7521 12.941C6.73788 13.1411 6.79631 13.3396 6.91667 13.5001L8.375 14.9584C8.55676 15.1499 8.77691 15.3009 9.02103 15.4014C9.26516 15.5019 9.52777 15.5497 9.79167 15.5417C10.0468 15.5406 10.3 15.4984 10.5417 15.4167L16.2083 14.4167C16.326 14.4003 16.4456 14.4301 16.5417 14.5001C16.5826 14.5366 16.6149 14.5816 16.6365 14.632C16.6581 14.6824 16.6684 14.7369 16.6667 14.7917C16.6686 14.8892 16.6364 14.9843 16.5754 15.0604C16.5145 15.1366 16.4289 15.1889 16.3333 15.2084Z" fill="#47463C"/>
</g>
<defs>
<clipPath id="clip0_39_668">
<rect width="20" height="20" fill="white"/>
</clipPath>
</defs>
</svg>
