<svg width="30" height="30" viewBox="0 0 30 30" fill="none" xmlns="http://www.w3.org/2000/svg">
<circle cx="15" cy="15" r="15" fill="#8012DC"/>
<path d="M20.5 8H9.5C9.10218 8 8.72064 8.15804 8.43934 8.43934C8.15804 8.72064 8 9.10218 8 9.5V20.5C8 20.8978 8.15804 21.2794 8.43934 21.5607C8.72064 21.842 9.10218 22 9.5 22H20.5C20.8978 22 21.2794 21.842 21.5607 21.5607C21.842 21.2794 22 20.8978 22 20.5V9.5C22 9.10218 21.842 8.72064 21.5607 8.43934C21.2794 8.15804 20.8978 8 20.5 8ZM12.875 10.5C13.1469 10.5 13.4128 10.5806 13.6389 10.7317C13.865 10.8828 14.0413 11.0976 14.1453 11.3488C14.2494 11.6001 14.2766 11.8765 14.2236 12.1432C14.1705 12.41 14.0396 12.655 13.8473 12.8473C13.655 13.0396 13.41 13.1705 13.1432 13.2236C12.8765 13.2766 12.6001 13.2494 12.3488 13.1453C12.0976 13.0413 11.8828 12.865 11.7317 12.6389C11.5806 12.4128 11.5 12.1469 11.5 11.875C11.5 11.5103 11.6449 11.1606 11.9027 10.9027C12.1606 10.6449 12.5103 10.5 12.875 10.5ZM20.4692 18.8702C20.4477 18.9095 20.416 18.9423 20.3774 18.9651C20.3388 18.988 20.2948 19 20.25 19H9.75C9.70552 19 9.66184 18.9882 9.62347 18.9657C9.58509 18.9432 9.55342 18.9108 9.53172 18.872C9.51001 18.8332 9.49906 18.7893 9.49998 18.7448C9.50091 18.7003 9.51369 18.6569 9.537 18.619L11.537 15.369C11.5574 15.3358 11.5854 15.3077 11.6186 15.2872C11.6518 15.2667 11.6893 15.2543 11.7282 15.2509C11.7671 15.2475 11.8062 15.2532 11.8425 15.2676C11.8787 15.2821 11.9111 15.3048 11.937 15.334L13.722 17.3418L16.542 13.1112C16.5654 13.077 16.5969 13.0489 16.6336 13.0295C16.6703 13.0102 16.7112 13 16.7528 13C16.7944 13.0004 16.8352 13.0113 16.8716 13.0315C16.9079 13.0517 16.9387 13.0807 16.961 13.1157L20.461 18.6158C20.4851 18.6535 20.4985 18.6971 20.5 18.7419C20.5014 18.7866 20.4908 18.831 20.4692 18.8702Z" fill="white"/>
</svg>
