<svg width="20" height="20" viewBox="0 0 20 20" fill="none" xmlns="http://www.w3.org/2000/svg">
<path d="M18.5307 18.5298L20.0002 18.3955L19.2301 11.4302C19.3443 10.6058 19.422 9.7768 19.463 8.94556C19.533 7.31962 19.7766 2.15674 15.0952 2.15674C10.4117 2.15674 10.5396 6.46735 10.5396 6.46735L10.881 12.061L10.231 18.3312L11.699 18.4655L12.282 13.9591C12.6363 15.1572 12.9713 16.2609 12.9713 16.2609L12.5356 18.9091H18.0492L17.4284 16.1687C17.4284 16.1687 17.6206 14.9007 17.8513 13.5655L18.5307 18.5298ZM16.1675 9.89284V11.208H16.1747L16.6469 11.4316L15.1645 14.1027L13.7122 11.3495L14.0837 11.2559V9.84712C12.5684 9.37134 11.4611 7.97043 11.4611 6.29733C11.4611 6.17088 11.4847 6.05158 11.4976 5.92871C12.5306 5.85798 16.0111 5.53722 16.1011 4.40563C16.434 5.01929 18.1914 6.56165 18.9029 6.67953C18.8249 7.42877 18.5219 8.13682 18.0336 8.71042C17.5453 9.28402 16.8947 9.69626 16.1675 9.89284Z" fill="#8012DC"/>
<path d="M6.34876 10.3629C6.34876 10.3629 5.85084 11.8924 4.47993 11.9731C3.10759 12.0517 2.58894 10.3629 2.58894 10.3629H0.202172L0 17.4554H1.24946L1.31519 18.8134H1.50664V18.9084H7.63466V18.8134H7.86898L7.8697 17.3068L9.17774 17.2846L9.01629 10.3636H6.34876V10.3629Z" fill="#8012DC"/>
<path d="M1.07137 5.11784C1.02637 5.26715 0.97993 5.41717 0.952784 5.57291C0.870262 6.06933 0.891537 6.57747 1.01527 7.06526C1.13899 7.55304 1.36249 8.00989 1.67165 8.40696C1.9808 8.80404 2.36891 9.13271 2.81148 9.37226C3.25404 9.6118 3.74146 9.75701 4.24296 9.79871C4.74447 9.84042 5.24917 9.77772 5.72522 9.61457C6.20128 9.45142 6.63835 9.19136 7.00885 8.85081C7.37934 8.51025 7.67523 8.0966 7.87783 7.63595C8.08043 7.1753 8.18535 6.67766 8.18596 6.17442C8.18596 5.77222 8.10595 5.39217 7.98665 5.02997L8.72532 4.00983L7.40085 3.54333L7.65946 2.18885L6.04065 2.65106L5.29698 1.09155L3.91535 2.53247L2.8452 1.29301L2.34155 2.9311L0.623451 2.36745L1.27069 3.81551L0.0205078 4.16628L1.07137 5.11784Z" fill="#8012DC"/>
</svg>
